<mxfile host="app.diagrams.net" modified="2022-08-06T17:23:20.231Z" agent="5.0 (Windows NT 10.0; Win64; x64) AppleWebKit/537.36 (KHTML, like Gecko) Chrome/104.0.0.0 Safari/537.36" etag="8hRmivCFuFNKtYdRqj55" version="20.2.3" type="github">
  <diagram id="C5RBs43oDa-KdzZeNtuy" name="Page-1">
    <mxGraphModel dx="1564" dy="872" grid="1" gridSize="10" guides="1" tooltips="1" connect="1" arrows="1" fold="1" page="1" pageScale="1" pageWidth="827" pageHeight="1169" math="0" shadow="0">
      <root>
        <mxCell id="WIyWlLk6GJQsqaUBKTNV-0" />
        <mxCell id="WIyWlLk6GJQsqaUBKTNV-1" parent="WIyWlLk6GJQsqaUBKTNV-0" />
        <mxCell id="ffefgHxvJ7qie5YGXQlK-0" style="edgeStyle=orthogonalEdgeStyle;rounded=0;orthogonalLoop=1;jettySize=auto;html=1;" edge="1" parent="WIyWlLk6GJQsqaUBKTNV-1" source="ffefgHxvJ7qie5YGXQlK-1" target="ffefgHxvJ7qie5YGXQlK-3">
          <mxGeometry relative="1" as="geometry" />
        </mxCell>
        <mxCell id="ffefgHxvJ7qie5YGXQlK-1" value="INICIO" style="rounded=1;whiteSpace=wrap;html=1;arcSize=50;" vertex="1" parent="WIyWlLk6GJQsqaUBKTNV-1">
          <mxGeometry x="344" y="50" width="140" height="60" as="geometry" />
        </mxCell>
        <mxCell id="ffefgHxvJ7qie5YGXQlK-2" style="edgeStyle=orthogonalEdgeStyle;rounded=0;orthogonalLoop=1;jettySize=auto;html=1;" edge="1" parent="WIyWlLk6GJQsqaUBKTNV-1" source="ffefgHxvJ7qie5YGXQlK-3" target="ffefgHxvJ7qie5YGXQlK-5">
          <mxGeometry relative="1" as="geometry" />
        </mxCell>
        <mxCell id="ffefgHxvJ7qie5YGXQlK-3" value="int i&lt;br&gt;int j&lt;br&gt;char m[5][5]" style="rounded=0;whiteSpace=wrap;html=1;" vertex="1" parent="WIyWlLk6GJQsqaUBKTNV-1">
          <mxGeometry x="354" y="160" width="120" height="60" as="geometry" />
        </mxCell>
        <mxCell id="ffefgHxvJ7qie5YGXQlK-4" style="edgeStyle=orthogonalEdgeStyle;rounded=0;orthogonalLoop=1;jettySize=auto;html=1;entryX=0.5;entryY=0;entryDx=0;entryDy=0;" edge="1" parent="WIyWlLk6GJQsqaUBKTNV-1" source="ffefgHxvJ7qie5YGXQlK-5" target="ffefgHxvJ7qie5YGXQlK-7">
          <mxGeometry relative="1" as="geometry" />
        </mxCell>
        <mxCell id="ffefgHxvJ7qie5YGXQlK-5" value="i = 0&lt;br&gt;j = 0" style="rounded=0;whiteSpace=wrap;html=1;" vertex="1" parent="WIyWlLk6GJQsqaUBKTNV-1">
          <mxGeometry x="354" y="280" width="120" height="60" as="geometry" />
        </mxCell>
        <mxCell id="ffefgHxvJ7qie5YGXQlK-6" style="edgeStyle=orthogonalEdgeStyle;rounded=0;orthogonalLoop=1;jettySize=auto;html=1;" edge="1" parent="WIyWlLk6GJQsqaUBKTNV-1" source="ffefgHxvJ7qie5YGXQlK-7" target="ffefgHxvJ7qie5YGXQlK-10">
          <mxGeometry relative="1" as="geometry" />
        </mxCell>
        <mxCell id="ffefgHxvJ7qie5YGXQlK-7" value="" style="ellipse;whiteSpace=wrap;html=1;aspect=fixed;" vertex="1" parent="WIyWlLk6GJQsqaUBKTNV-1">
          <mxGeometry x="399" y="370" width="30" height="30" as="geometry" />
        </mxCell>
        <mxCell id="ffefgHxvJ7qie5YGXQlK-8" value="V" style="edgeStyle=orthogonalEdgeStyle;rounded=0;orthogonalLoop=1;jettySize=auto;html=1;" edge="1" parent="WIyWlLk6GJQsqaUBKTNV-1" source="ffefgHxvJ7qie5YGXQlK-10" target="ffefgHxvJ7qie5YGXQlK-12">
          <mxGeometry relative="1" as="geometry" />
        </mxCell>
        <mxCell id="ffefgHxvJ7qie5YGXQlK-9" value="F" style="edgeStyle=orthogonalEdgeStyle;rounded=0;orthogonalLoop=1;jettySize=auto;html=1;entryX=0.5;entryY=0;entryDx=0;entryDy=0;" edge="1" parent="WIyWlLk6GJQsqaUBKTNV-1" source="ffefgHxvJ7qie5YGXQlK-10" target="ffefgHxvJ7qie5YGXQlK-24">
          <mxGeometry relative="1" as="geometry">
            <Array as="points">
              <mxPoint x="340" y="480" />
              <mxPoint x="340" y="690" />
              <mxPoint x="414" y="690" />
            </Array>
          </mxGeometry>
        </mxCell>
        <mxCell id="ffefgHxvJ7qie5YGXQlK-10" value="i&amp;lt;5" style="rhombus;whiteSpace=wrap;html=1;rounded=0;" vertex="1" parent="WIyWlLk6GJQsqaUBKTNV-1">
          <mxGeometry x="374" y="440" width="80" height="80" as="geometry" />
        </mxCell>
        <mxCell id="ffefgHxvJ7qie5YGXQlK-11" style="edgeStyle=orthogonalEdgeStyle;rounded=0;orthogonalLoop=1;jettySize=auto;html=1;entryX=0.5;entryY=0;entryDx=0;entryDy=0;" edge="1" parent="WIyWlLk6GJQsqaUBKTNV-1" source="ffefgHxvJ7qie5YGXQlK-12" target="ffefgHxvJ7qie5YGXQlK-14">
          <mxGeometry relative="1" as="geometry" />
        </mxCell>
        <mxCell id="ffefgHxvJ7qie5YGXQlK-12" value="j=0" style="rounded=1;whiteSpace=wrap;html=1;" vertex="1" parent="WIyWlLk6GJQsqaUBKTNV-1">
          <mxGeometry x="500" y="450" width="120" height="60" as="geometry" />
        </mxCell>
        <mxCell id="ffefgHxvJ7qie5YGXQlK-13" style="edgeStyle=orthogonalEdgeStyle;rounded=0;orthogonalLoop=1;jettySize=auto;html=1;entryX=0.5;entryY=0;entryDx=0;entryDy=0;" edge="1" parent="WIyWlLk6GJQsqaUBKTNV-1" source="ffefgHxvJ7qie5YGXQlK-14" target="ffefgHxvJ7qie5YGXQlK-17">
          <mxGeometry relative="1" as="geometry" />
        </mxCell>
        <mxCell id="ffefgHxvJ7qie5YGXQlK-14" value="" style="ellipse;whiteSpace=wrap;html=1;aspect=fixed;" vertex="1" parent="WIyWlLk6GJQsqaUBKTNV-1">
          <mxGeometry x="537.5" y="540" width="45" height="45" as="geometry" />
        </mxCell>
        <mxCell id="ffefgHxvJ7qie5YGXQlK-15" value="F" style="edgeStyle=orthogonalEdgeStyle;rounded=0;orthogonalLoop=1;jettySize=auto;html=1;entryX=0.5;entryY=1;entryDx=0;entryDy=0;" edge="1" parent="WIyWlLk6GJQsqaUBKTNV-1" source="ffefgHxvJ7qie5YGXQlK-17" target="ffefgHxvJ7qie5YGXQlK-21">
          <mxGeometry relative="1" as="geometry" />
        </mxCell>
        <mxCell id="ffefgHxvJ7qie5YGXQlK-16" value="V" style="edgeStyle=orthogonalEdgeStyle;rounded=0;orthogonalLoop=1;jettySize=auto;html=1;entryX=0;entryY=0.5;entryDx=0;entryDy=0;" edge="1" parent="WIyWlLk6GJQsqaUBKTNV-1" source="ffefgHxvJ7qie5YGXQlK-17" target="ffefgHxvJ7qie5YGXQlK-23">
          <mxGeometry relative="1" as="geometry" />
        </mxCell>
        <mxCell id="ffefgHxvJ7qie5YGXQlK-17" value="j&amp;lt;5" style="rhombus;whiteSpace=wrap;html=1;rounded=0;" vertex="1" parent="WIyWlLk6GJQsqaUBKTNV-1">
          <mxGeometry x="520" y="610" width="80" height="80" as="geometry" />
        </mxCell>
        <mxCell id="ffefgHxvJ7qie5YGXQlK-18" style="edgeStyle=orthogonalEdgeStyle;rounded=0;orthogonalLoop=1;jettySize=auto;html=1;entryX=1;entryY=0.5;entryDx=0;entryDy=0;" edge="1" parent="WIyWlLk6GJQsqaUBKTNV-1" source="ffefgHxvJ7qie5YGXQlK-19" target="ffefgHxvJ7qie5YGXQlK-14">
          <mxGeometry relative="1" as="geometry" />
        </mxCell>
        <mxCell id="ffefgHxvJ7qie5YGXQlK-19" value="j++" style="rounded=0;whiteSpace=wrap;html=1;" vertex="1" parent="WIyWlLk6GJQsqaUBKTNV-1">
          <mxGeometry x="680" y="532.5" width="120" height="60" as="geometry" />
        </mxCell>
        <mxCell id="ffefgHxvJ7qie5YGXQlK-20" style="edgeStyle=orthogonalEdgeStyle;rounded=0;orthogonalLoop=1;jettySize=auto;html=1;entryX=0;entryY=0.5;entryDx=0;entryDy=0;" edge="1" parent="WIyWlLk6GJQsqaUBKTNV-1" source="ffefgHxvJ7qie5YGXQlK-21" target="ffefgHxvJ7qie5YGXQlK-7">
          <mxGeometry relative="1" as="geometry" />
        </mxCell>
        <mxCell id="ffefgHxvJ7qie5YGXQlK-21" value="I++" style="rounded=0;whiteSpace=wrap;html=1;" vertex="1" parent="WIyWlLk6GJQsqaUBKTNV-1">
          <mxGeometry x="180" y="355" width="120" height="60" as="geometry" />
        </mxCell>
        <mxCell id="ffefgHxvJ7qie5YGXQlK-22" style="edgeStyle=orthogonalEdgeStyle;rounded=0;orthogonalLoop=1;jettySize=auto;html=1;entryX=1;entryY=0.5;entryDx=0;entryDy=0;" edge="1" parent="WIyWlLk6GJQsqaUBKTNV-1" source="ffefgHxvJ7qie5YGXQlK-23" target="ffefgHxvJ7qie5YGXQlK-19">
          <mxGeometry relative="1" as="geometry">
            <mxPoint x="870" y="550" as="targetPoint" />
            <Array as="points">
              <mxPoint x="910" y="650" />
              <mxPoint x="910" y="562" />
            </Array>
          </mxGeometry>
        </mxCell>
        <mxCell id="ffefgHxvJ7qie5YGXQlK-23" value="m[i][j] = &#39; &#39;" style="rounded=0;whiteSpace=wrap;html=1;" vertex="1" parent="WIyWlLk6GJQsqaUBKTNV-1">
          <mxGeometry x="680" y="620" width="120" height="60" as="geometry" />
        </mxCell>
        <mxCell id="ffefgHxvJ7qie5YGXQlK-27" style="edgeStyle=orthogonalEdgeStyle;rounded=0;orthogonalLoop=1;jettySize=auto;html=1;" edge="1" parent="WIyWlLk6GJQsqaUBKTNV-1" source="ffefgHxvJ7qie5YGXQlK-24" target="ffefgHxvJ7qie5YGXQlK-43">
          <mxGeometry relative="1" as="geometry">
            <mxPoint x="414.0000000000002" y="850.0000000000002" as="targetPoint" />
          </mxGeometry>
        </mxCell>
        <mxCell id="ffefgHxvJ7qie5YGXQlK-24" value="i = 0&lt;br&gt;j = 0" style="rounded=0;whiteSpace=wrap;html=1;" vertex="1" parent="WIyWlLk6GJQsqaUBKTNV-1">
          <mxGeometry x="354" y="740" width="120" height="60" as="geometry" />
        </mxCell>
        <mxCell id="ffefgHxvJ7qie5YGXQlK-28" value="V" style="edgeStyle=orthogonalEdgeStyle;rounded=0;orthogonalLoop=1;jettySize=auto;html=1;" edge="1" parent="WIyWlLk6GJQsqaUBKTNV-1" source="ffefgHxvJ7qie5YGXQlK-30" target="ffefgHxvJ7qie5YGXQlK-32">
          <mxGeometry relative="1" as="geometry">
            <mxPoint x="561" y="1100" as="targetPoint" />
          </mxGeometry>
        </mxCell>
        <mxCell id="ffefgHxvJ7qie5YGXQlK-29" value="F" style="edgeStyle=orthogonalEdgeStyle;rounded=0;orthogonalLoop=1;jettySize=auto;html=1;" edge="1" parent="WIyWlLk6GJQsqaUBKTNV-1" source="ffefgHxvJ7qie5YGXQlK-30" target="ffefgHxvJ7qie5YGXQlK-46">
          <mxGeometry relative="1" as="geometry">
            <mxPoint x="414.9999999999998" y="1190.0000000000002" as="targetPoint" />
          </mxGeometry>
        </mxCell>
        <mxCell id="ffefgHxvJ7qie5YGXQlK-30" value="j&amp;lt;5" style="rhombus;whiteSpace=wrap;html=1;" vertex="1" parent="WIyWlLk6GJQsqaUBKTNV-1">
          <mxGeometry x="375" y="960" width="80" height="80" as="geometry" />
        </mxCell>
        <mxCell id="ffefgHxvJ7qie5YGXQlK-31" style="edgeStyle=orthogonalEdgeStyle;rounded=0;orthogonalLoop=1;jettySize=auto;html=1;entryX=0;entryY=0.5;entryDx=0;entryDy=0;" edge="1" parent="WIyWlLk6GJQsqaUBKTNV-1" source="ffefgHxvJ7qie5YGXQlK-32" target="ffefgHxvJ7qie5YGXQlK-35">
          <mxGeometry relative="1" as="geometry">
            <Array as="points" />
          </mxGeometry>
        </mxCell>
        <mxCell id="ffefgHxvJ7qie5YGXQlK-32" value="m[i][j] = &#39;*&#39;" style="rounded=0;whiteSpace=wrap;html=1;" vertex="1" parent="WIyWlLk6GJQsqaUBKTNV-1">
          <mxGeometry x="521" y="970" width="120" height="60" as="geometry" />
        </mxCell>
        <mxCell id="ffefgHxvJ7qie5YGXQlK-33" value="V" style="edgeStyle=orthogonalEdgeStyle;rounded=0;orthogonalLoop=1;jettySize=auto;html=1;" edge="1" parent="WIyWlLk6GJQsqaUBKTNV-1" source="ffefgHxvJ7qie5YGXQlK-35" target="ffefgHxvJ7qie5YGXQlK-37">
          <mxGeometry relative="1" as="geometry" />
        </mxCell>
        <mxCell id="ffefgHxvJ7qie5YGXQlK-50" value="F" style="edgeStyle=orthogonalEdgeStyle;rounded=0;orthogonalLoop=1;jettySize=auto;html=1;" edge="1" parent="WIyWlLk6GJQsqaUBKTNV-1" source="ffefgHxvJ7qie5YGXQlK-35" target="ffefgHxvJ7qie5YGXQlK-49">
          <mxGeometry relative="1" as="geometry" />
        </mxCell>
        <mxCell id="ffefgHxvJ7qie5YGXQlK-35" value="j&amp;lt;2" style="rhombus;whiteSpace=wrap;html=1;" vertex="1" parent="WIyWlLk6GJQsqaUBKTNV-1">
          <mxGeometry x="748" y="960" width="80" height="80" as="geometry" />
        </mxCell>
        <mxCell id="ffefgHxvJ7qie5YGXQlK-59" style="edgeStyle=orthogonalEdgeStyle;rounded=0;orthogonalLoop=1;jettySize=auto;html=1;" edge="1" parent="WIyWlLk6GJQsqaUBKTNV-1" source="ffefgHxvJ7qie5YGXQlK-37" target="ffefgHxvJ7qie5YGXQlK-58">
          <mxGeometry relative="1" as="geometry" />
        </mxCell>
        <mxCell id="ffefgHxvJ7qie5YGXQlK-37" value="i++" style="rounded=0;whiteSpace=wrap;html=1;" vertex="1" parent="WIyWlLk6GJQsqaUBKTNV-1">
          <mxGeometry x="861" y="970" width="120" height="60" as="geometry" />
        </mxCell>
        <mxCell id="ffefgHxvJ7qie5YGXQlK-60" style="edgeStyle=orthogonalEdgeStyle;rounded=0;orthogonalLoop=1;jettySize=auto;html=1;entryX=1;entryY=0.5;entryDx=0;entryDy=0;" edge="1" parent="WIyWlLk6GJQsqaUBKTNV-1" source="ffefgHxvJ7qie5YGXQlK-39" target="ffefgHxvJ7qie5YGXQlK-58">
          <mxGeometry relative="1" as="geometry">
            <Array as="points">
              <mxPoint x="1130" y="880" />
            </Array>
          </mxGeometry>
        </mxCell>
        <mxCell id="ffefgHxvJ7qie5YGXQlK-39" value="i--" style="rounded=0;whiteSpace=wrap;html=1;" vertex="1" parent="WIyWlLk6GJQsqaUBKTNV-1">
          <mxGeometry x="1070" y="970" width="120" height="60" as="geometry" />
        </mxCell>
        <mxCell id="ffefgHxvJ7qie5YGXQlK-42" style="edgeStyle=orthogonalEdgeStyle;rounded=0;orthogonalLoop=1;jettySize=auto;html=1;" edge="1" parent="WIyWlLk6GJQsqaUBKTNV-1" source="ffefgHxvJ7qie5YGXQlK-43" target="ffefgHxvJ7qie5YGXQlK-30">
          <mxGeometry relative="1" as="geometry" />
        </mxCell>
        <mxCell id="ffefgHxvJ7qie5YGXQlK-43" value="" style="ellipse;whiteSpace=wrap;html=1;aspect=fixed;" vertex="1" parent="WIyWlLk6GJQsqaUBKTNV-1">
          <mxGeometry x="394" y="860" width="40" height="40" as="geometry" />
        </mxCell>
        <mxCell id="ffefgHxvJ7qie5YGXQlK-44" style="edgeStyle=orthogonalEdgeStyle;rounded=0;orthogonalLoop=1;jettySize=auto;html=1;entryX=1;entryY=0.5;entryDx=0;entryDy=0;" edge="1" parent="WIyWlLk6GJQsqaUBKTNV-1" source="ffefgHxvJ7qie5YGXQlK-45" target="ffefgHxvJ7qie5YGXQlK-43">
          <mxGeometry relative="1" as="geometry" />
        </mxCell>
        <mxCell id="ffefgHxvJ7qie5YGXQlK-45" value="j++" style="rounded=0;whiteSpace=wrap;html=1;" vertex="1" parent="WIyWlLk6GJQsqaUBKTNV-1">
          <mxGeometry x="651" y="850" width="120" height="60" as="geometry" />
        </mxCell>
        <mxCell id="ffefgHxvJ7qie5YGXQlK-46" value="FIN" style="rounded=1;whiteSpace=wrap;html=1;arcSize=50;" vertex="1" parent="WIyWlLk6GJQsqaUBKTNV-1">
          <mxGeometry x="344" y="1270" width="140" height="60" as="geometry" />
        </mxCell>
        <mxCell id="ffefgHxvJ7qie5YGXQlK-54" style="edgeStyle=orthogonalEdgeStyle;rounded=0;orthogonalLoop=1;jettySize=auto;html=1;entryX=0;entryY=0.5;entryDx=0;entryDy=0;" edge="1" parent="WIyWlLk6GJQsqaUBKTNV-1" source="ffefgHxvJ7qie5YGXQlK-48" target="ffefgHxvJ7qie5YGXQlK-53">
          <mxGeometry relative="1" as="geometry" />
        </mxCell>
        <mxCell id="ffefgHxvJ7qie5YGXQlK-48" value="m[i+1][j] = &#39;*&#39;&lt;br&gt;m[i+2][j] = &#39;*&#39;" style="rounded=0;whiteSpace=wrap;html=1;" vertex="1" parent="WIyWlLk6GJQsqaUBKTNV-1">
          <mxGeometry x="870" y="1110" width="120" height="60" as="geometry" />
        </mxCell>
        <mxCell id="ffefgHxvJ7qie5YGXQlK-51" value="V" style="edgeStyle=orthogonalEdgeStyle;rounded=0;orthogonalLoop=1;jettySize=auto;html=1;entryX=0;entryY=0.5;entryDx=0;entryDy=0;" edge="1" parent="WIyWlLk6GJQsqaUBKTNV-1" source="ffefgHxvJ7qie5YGXQlK-49" target="ffefgHxvJ7qie5YGXQlK-48">
          <mxGeometry relative="1" as="geometry" />
        </mxCell>
        <mxCell id="ffefgHxvJ7qie5YGXQlK-52" value="F" style="edgeStyle=orthogonalEdgeStyle;rounded=0;orthogonalLoop=1;jettySize=auto;html=1;entryX=0.5;entryY=1;entryDx=0;entryDy=0;" edge="1" parent="WIyWlLk6GJQsqaUBKTNV-1" source="ffefgHxvJ7qie5YGXQlK-49" target="ffefgHxvJ7qie5YGXQlK-53">
          <mxGeometry relative="1" as="geometry">
            <mxPoint x="1030" y="1280" as="targetPoint" />
            <Array as="points">
              <mxPoint x="787" y="1200" />
              <mxPoint x="1150" y="1200" />
            </Array>
          </mxGeometry>
        </mxCell>
        <mxCell id="ffefgHxvJ7qie5YGXQlK-49" value="j == 2" style="rhombus;whiteSpace=wrap;html=1;" vertex="1" parent="WIyWlLk6GJQsqaUBKTNV-1">
          <mxGeometry x="747" y="1100" width="80" height="80" as="geometry" />
        </mxCell>
        <mxCell id="ffefgHxvJ7qie5YGXQlK-55" style="edgeStyle=orthogonalEdgeStyle;rounded=0;orthogonalLoop=1;jettySize=auto;html=1;" edge="1" parent="WIyWlLk6GJQsqaUBKTNV-1" source="ffefgHxvJ7qie5YGXQlK-53" target="ffefgHxvJ7qie5YGXQlK-39">
          <mxGeometry relative="1" as="geometry" />
        </mxCell>
        <mxCell id="ffefgHxvJ7qie5YGXQlK-53" value="" style="ellipse;whiteSpace=wrap;html=1;aspect=fixed;" vertex="1" parent="WIyWlLk6GJQsqaUBKTNV-1">
          <mxGeometry x="1130" y="1120" width="40" height="40" as="geometry" />
        </mxCell>
        <mxCell id="ffefgHxvJ7qie5YGXQlK-61" style="edgeStyle=orthogonalEdgeStyle;rounded=0;orthogonalLoop=1;jettySize=auto;html=1;" edge="1" parent="WIyWlLk6GJQsqaUBKTNV-1" source="ffefgHxvJ7qie5YGXQlK-58" target="ffefgHxvJ7qie5YGXQlK-45">
          <mxGeometry relative="1" as="geometry" />
        </mxCell>
        <mxCell id="ffefgHxvJ7qie5YGXQlK-58" value="" style="ellipse;whiteSpace=wrap;html=1;aspect=fixed;" vertex="1" parent="WIyWlLk6GJQsqaUBKTNV-1">
          <mxGeometry x="901" y="860" width="40" height="40" as="geometry" />
        </mxCell>
      </root>
    </mxGraphModel>
  </diagram>
</mxfile>
